<?xml version="1.0" standalone="no"?>
<!DOCTYPE svg PUBLIC "-//W3C//DTD SVG 20010904//EN"
 "http://www.w3.org/TR/2001/REC-SVG-20010904/DTD/svg10.dtd">
<svg version="1.0" xmlns="http://www.w3.org/2000/svg"
 width="2048.000000pt" height="2048.000000pt" viewBox="0 0 2048.000000 2048.000000"
 preserveAspectRatio="xMidYMid meet">

<g transform="translate(0.000000,2048.000000) scale(0.100000,-0.100000)"
fill="#000000" stroke="none">
<path d="M0 10240 l0 -10240 8323 1 c4577 1 8256 6 8174 10 -386 21 -882 82
-1227 150 -502 99 -1045 254 -1609 458 -280 102 -761 300 -1000 412 -57 27
-105 49 -107 49 -15 0 -354 172 -405 206 -189 125 -306 336 -317 574 -6 130
17 230 83 365 137 280 468 450 771 394 67 -12 228 -76 360 -142 124 -62 506
-231 704 -312 733 -298 1365 -484 2050 -604 301 -52 774 -80 1045 -62 344 24
486 46 720 113 274 78 484 182 695 344 367 281 624 774 700 1343 45 339 46
672 5 1083 -75 734 -357 1699 -770 2633 -159 360 -381 816 -525 1080 -125 229
-168 306 -273 490 -114 198 -338 570 -432 715 -23 36 -66 103 -95 150 -375
590 -1018 1473 -1500 2060 -640 780 -1107 1297 -1790 1981 -607 608 -1002 977
-1540 1438 -251 215 -315 282 -366 382 -75 151 -100 256 -91 387 7 99 30 176
89 301 35 72 56 101 132 176 139 139 292 210 475 221 126 7 220 -12 346 -70
118 -56 101 -41 620 -491 743 -644 1726 -1618 2433 -2413 761 -855 1382 -1637
1979 -2492 1063 -1522 1895 -3125 2342 -4510 300 -932 444 -1718 458 -2507 6
-305 -2 -451 -43 -773 -31 -246 -45 -327 -95 -520 -166 -645 -445 -1149 -873
-1575 -352 -351 -710 -578 -1206 -767 -144 -55 -430 -138 -595 -172 -140 -29
-606 -85 -800 -95 -77 -5 709 -9 1748 -10 l1887 -1 -1 8283 c-1 6859 -4 8252
-14 8107 -15 -191 -22 -268 -60 -590 -95 -827 -409 -1911 -832 -2875 -20 -44
-48 -109 -63 -145 -15 -36 -41 -94 -58 -130 -231 -493 -251 -528 -358 -631
-87 -82 -211 -151 -324 -180 -89 -23 -299 -18 -385 9 -210 65 -387 223 -469
420 -48 114 -61 175 -60 292 1 149 10 177 189 560 445 953 726 1807 875 2665
66 379 85 976 41 1334 -78 645 -330 1133 -747 1443 -241 179 -501 290 -866
372 -219 49 -345 60 -708 60 -417 0 -517 -9 -965 -91 -1016 -184 -2108 -598
-3385 -1282 -144 -78 -215 -117 -460 -259 -186 -108 -464 -277 -638 -388 -51
-32 -114 -72 -140 -88 -204 -128 -586 -389 -996 -680 -118 -85 -495 -369 -670
-505 -109 -86 -210 -165 -225 -176 -179 -135 -821 -678 -1141 -965 -459 -411
-1234 -1167 -1645 -1605 -261 -277 -278 -295 -375 -405 -51 -58 -132 -148
-179 -200 -47 -53 -135 -154 -196 -224 -288 -335 -326 -374 -435 -443 -153
-97 -374 -127 -575 -77 -123 31 -277 131 -365 237 -107 130 -170 300 -170 460
0 126 22 221 76 329 44 87 73 128 213 292 919 1080 2120 2285 3131 3141 306
259 368 311 465 390 54 44 137 112 184 151 243 199 934 724 1191 904 58 41
150 105 205 144 217 152 743 500 980 648 1546 962 3051 1627 4410 1947 276 65
359 81 705 136 461 73 1029 94 1515 55 409 -32 877 -145 1242 -299 727 -307
1290 -831 1644 -1529 145 -285 247 -578 328 -947 35 -158 91 -639 91 -780 0
-46 5 -87 10 -90 7 -4 10 612 10 1839 l0 1846 -10240 0 -10240 0 0 -10240z
m4296 10205 c295 -19 380 -31 839 -110 361 -63 1100 -259 1415 -377 30 -11
123 -44 205 -73 185 -66 362 -134 565 -218 271 -113 343 -144 431 -186 48 -22
90 -41 94 -41 22 0 423 -201 491 -246 134 -89 249 -263 295 -444 18 -75 16
-250 -4 -326 -27 -105 -103 -247 -170 -319 -89 -98 -236 -190 -352 -222 -128
-34 -343 -25 -454 21 -31 13 -139 62 -241 111 -294 139 -330 155 -415 190 -44
18 -105 44 -135 57 -30 13 -129 54 -220 90 -797 319 -1514 514 -2205 602 -381
48 -838 49 -1150 1 -166 -26 -442 -99 -582 -154 -586 -233 -959 -675 -1127
-1334 -71 -278 -96 -490 -96 -824 0 -333 22 -553 95 -961 101 -558 288 -1189
535 -1802 347 -861 779 -1697 1346 -2607 493 -789 1110 -1643 1752 -2422 551
-668 1065 -1234 1727 -1897 543 -544 972 -942 1513 -1407 158 -135 259 -230
288 -269 174 -236 202 -524 78 -777 -82 -166 -245 -308 -427 -373 -74 -26
-201 -41 -287 -34 -208 17 -308 70 -583 308 -33 29 -115 100 -181 158 -971
843 -1987 1861 -2829 2834 -415 479 -918 1101 -1197 1481 -41 55 -118 159
-171 231 -328 444 -769 1104 -1104 1654 -308 505 -709 1250 -917 1705 -20 44
-60 130 -88 190 -29 61 -85 187 -125 280 -514 1201 -814 2338 -875 3315 -20
328 -9 747 31 1105 18 161 106 555 166 738 284 876 854 1551 1648 1954 409
208 940 355 1415 393 80 6 156 12 170 14 84 10 640 4 836 -9z m6053 -7674 c78
-40 149 -105 184 -169 29 -54 75 -206 112 -373 14 -63 48 -206 75 -319 194
-804 191 -793 269 -908 40 -59 138 -150 192 -178 55 -28 184 -74 279 -100 150
-40 514 -142 645 -181 66 -19 171 -48 234 -64 270 -69 387 -193 385 -409 -1
-110 -29 -185 -95 -256 -87 -91 -84 -90 -864 -277 -126 -30 -274 -65 -327 -77
-290 -64 -477 -247 -538 -525 -12 -55 -39 -177 -61 -270 -21 -94 -52 -236 -68
-315 -16 -80 -39 -185 -51 -235 -12 -49 -37 -166 -56 -259 -46 -227 -89 -390
-120 -453 -34 -71 -116 -144 -196 -174 -50 -19 -82 -24 -158 -24 -129 0 -202
28 -283 107 -69 68 -99 130 -127 258 -11 52 -36 163 -55 245 -19 83 -48 215
-64 295 -17 80 -41 192 -55 250 -13 58 -39 175 -56 260 -47 236 -99 428 -133
500 -49 100 -168 216 -277 268 -47 23 -123 50 -170 62 -47 11 -200 47 -340 80
-604 143 -767 184 -808 203 -178 83 -257 300 -181 502 45 121 156 199 354 250
55 15 170 46 255 70 85 24 254 71 375 105 456 127 524 153 622 244 60 55 139
167 163 231 14 37 83 296 240 910 70 275 138 513 157 548 21 41 90 114 141
149 77 53 135 69 242 65 84 -3 102 -7 159 -36z m5469 -3905 c264 -69 450 -239
539 -492 25 -72 27 -92 27 -219 0 -103 -5 -157 -18 -205 -23 -84 -89 -208
-146 -275 -376 -439 -686 -785 -1004 -1120 -169 -179 -619 -640 -671 -688 -16
-15 -115 -112 -220 -216 -647 -638 -1380 -1285 -2159 -1907 -285 -227 -852
-650 -1186 -884 -188 -132 -736 -497 -891 -594 -52 -33 -134 -85 -184 -116
-49 -31 -180 -110 -290 -174 -110 -65 -236 -140 -280 -166 -44 -26 -132 -75
-195 -110 -63 -35 -153 -84 -200 -110 -116 -65 -296 -159 -540 -282 -438 -220
-858 -410 -1215 -548 -55 -21 -118 -46 -140 -56 -120 -52 -673 -241 -930 -318
-355 -106 -978 -248 -1280 -290 -173 -25 -696 -74 -855 -81 -231 -10 -752 29
-1067 80 -268 43 -628 154 -908 280 -968 435 -1630 1269 -1875 2365 -84 374
-110 623 -110 1058 0 345 35 859 69 1014 5 24 26 140 46 258 20 118 54 292 77
385 22 94 49 206 59 250 9 44 30 121 44 170 15 50 38 131 52 180 54 198 210
660 320 945 219 571 531 1253 630 1375 94 116 237 207 393 251 88 24 261 25
350 0 276 -75 490 -294 544 -559 39 -189 16 -325 -96 -562 -83 -178 -248 -542
-248 -550 0 -2 -13 -33 -29 -68 -114 -249 -325 -827 -432 -1182 -130 -434
-247 -998 -291 -1400 -18 -163 -18 -764 0 -905 55 -434 189 -814 391 -1105 73
-106 292 -323 411 -408 185 -131 468 -254 767 -331 158 -41 656 -82 868 -71
281 14 557 42 760 76 1742 293 3910 1355 6054 2963 207 156 485 370 591 456
519 423 692 569 1080 914 658 586 1475 1396 2045 2026 270 300 321 357 440
495 272 316 315 354 483 421 135 54 285 64 420 30z"/>
</g>
</svg>
